<svg xmlns="http://www.w3.org/2000/svg" viewBox="0 0 2000 2000">
  <path fill="#000" d="M613.75,1810c-57.5,0 -107.5,-25 -150,-75c-42.5,-50 -70.625,-112.5 -84.375,-187.5c-13.75,-75 -6.875,-148.75 20.625,-221.25l243.75,-648.75c20,-50 31.25,-90.625 33.75,-121.875c2.5,-31.25 -11.25,-46.875 -41.25,-46.875c-17.5,0 -48.125,18.75 -91.875,56.25c-43.75,37.5 -85.625,77.5 -125.625,120c-12.5,15 -22.5,23.75 -30,26.25c-7.5,2.5 -13.75,3.75 -18.75,3.75c-17.5,0 -26.25,-6.25 -26.25,-18.75c0,-15 3.125,-31.25 9.375,-48.75c6.25,-17.5 18.125,-38.75 35.625,-63.75c45,-62.5 90.625,-118.125 136.875,-166.875c46.25,-48.75 90.625,-90 133.125,-123.75c42.5,-33.75 81.875,-59.375 118.125,-76.875c36.25,-17.5 68.125,-26.25 95.625,-26.25c20,0 38.75,7.5 56.25,22.5c17.5,15 30.625,33.125 39.375,54.375c8.75,21.25 9.375,44.375 1.875,69.375l-337.5,975c-27.5,85 -31.25,153.75 -11.25,206.25c20,52.5 61.25,78.75 123.75,78.75c90,0 178.125,-25.625 264.375,-76.875c86.25,-51.25 163.125,-120 230.625,-206.25c67.5,-86.25 121.25,-181.875 161.25,-286.875c40,-105 60,-211.25 60,-318.75c0,-42.5 -8.125,-85 -24.375,-127.5c-16.25,-42.5 -38.125,-80 -65.625,-112.5c-17.5,-20 -29.375,-40 -35.625,-60c-6.25,-20 -9.375,-41.25 -9.375,-63.75c0,-22.5 11.25,-45.625 33.75,-69.375c22.5,-23.75 50.625,-43.75 84.375,-60c33.75,-16.25 68.125,-24.375 103.125,-24.375c27.5,0 52.5,21.25 75,63.75c22.5,42.5 33.75,107.5 33.75,195c0,110 -11.875,218.75 -35.625,326.25c-23.75,107.5 -61.25,213.125 -112.5,316.875c-51.25,103.75 -120.625,205.625 -208.125,305.625c-117.5,137.5 -235.625,240.625 -354.375,309.375c-118.75,68.75 -229.375,103.125 -331.875,103.125Z"/>
</svg>