<?xml version="1.0" encoding="UTF-8" standalone="no"?>
<!DOCTYPE svg PUBLIC "-//W3C//DTD SVG 1.1//EN" "http://www.w3.org/Graphics/SVG/1.1/DTD/svg11.dtd">
<svg width="100%" height="100%" viewBox="0 0 3200 1600" version="1.1" xmlns="http://www.w3.org/2000/svg" xmlns:xlink="http://www.w3.org/1999/xlink" xml:space="preserve" xmlns:serif="http://www.serif.com/" style="fill-rule:evenodd;clip-rule:evenodd;stroke-linejoin:round;stroke-miterlimit:2;">
  <style>
    path { fill: #000; }
    @media (prefers-color-scheme: dark) {
      path { fill: #fff; }
    }
  </style>
<g transform="matrix(1,0,0,1,-958.889735,-495.664199)">
<g>
<g transform="matrix(1200,0,0,1200,1064.889735,1547.064199)">
<path d="M0.119,0.014c-0.015,0 -0.029,-0.007 -0.04,-0.02c-0.011,-0.013 -0.019,-0.03 -0.022,-0.05c-0.004,-0.02 -0.002,-0.04 0.005,-0.059l0.065,-0.173c0.005,-0.013 0.008,-0.024 0.009,-0.032c0.001,-0.008 -0.003,-0.013 -0.011,-0.013c-0.005,0 -0.013,0.005 -0.024,0.015c-0.012,0.01 -0.023,0.021 -0.034,0.032c-0.003,0.004 -0.006,0.006 -0.008,0.007c-0.002,0.001 -0.004,0.001 -0.005,0.001c-0.005,0 -0.007,-0.002 -0.007,-0.005c0,-0.004 0.001,-0.008 0.003,-0.013c0.002,-0.005 0.005,-0.01 0.01,-0.017c0.012,-0.017 0.024,-0.032 0.036,-0.044c0.012,-0.013 0.024,-0.024 0.036,-0.033c0.011,-0.009 0.022,-0.016 0.032,-0.021c0.01,-0.005 0.018,-0.007 0.025,-0.007c0.005,0 0.01,0.002 0.015,0.006c0.005,0.004 0.008,0.009 0.01,0.015c0.002,0.006 0.003,0.012 0.001,0.019l-0.09,0.26c-0.007,0.023 -0.008,0.041 -0.003,0.055c0.005,0.014 0.016,0.021 0.033,0.021c0.024,0 0.048,-0.007 0.071,-0.02c0.023,-0.014 0.044,-0.032 0.062,-0.055c0.018,-0.023 0.032,-0.049 0.043,-0.076c0.011,-0.028 0.016,-0.056 0.016,-0.085c0,-0.011 -0.002,-0.023 -0.007,-0.034c-0.004,-0.011 -0.01,-0.021 -0.018,-0.03c-0.005,-0.005 -0.008,-0.011 -0.01,-0.016c-0.002,-0.005 -0.003,-0.011 -0.003,-0.017c0,-0.006 0.003,-0.012 0.009,-0.019c0.006,-0.006 0.014,-0.012 0.023,-0.016c0.009,-0.004 0.018,-0.006 0.027,-0.006c0.007,0 0.014,0.006 0.02,0.017c0.006,0.011 0.009,0.029 0.009,0.052c0,0.029 -0.003,0.058 -0.01,0.087c-0.006,0.029 -0.016,0.057 -0.03,0.085c-0.014,0.028 -0.032,0.055 -0.055,0.081c-0.031,0.037 -0.063,0.064 -0.094,0.083c-0.032,0.018 -0.061,0.027 -0.089,0.027Z" style="fill-rule:nonzero;"/>
</g>
<g transform="matrix(1200,0,0,1200,1556.889735,1547.064199)">
<path d="M0.066,0.014c-0.011,0 -0.021,-0.004 -0.028,-0.011c-0.007,-0.007 -0.011,-0.015 -0.011,-0.023c0,-0.003 0,-0.005 0.001,-0.008c0,-0.003 0.001,-0.005 0.002,-0.008c0.027,-0.055 0.05,-0.107 0.069,-0.157c0.019,-0.049 0.035,-0.092 0.05,-0.129c0.003,-0.008 0.001,-0.012 -0.005,-0.012c-0.003,0 -0.01,0.002 -0.02,0.006c-0.01,0.004 -0.02,0.009 -0.03,0.015c-0.011,0.006 -0.02,0.012 -0.028,0.018c-0.003,0.003 -0.007,0.003 -0.01,0.002c-0.003,-0.001 -0.005,-0.004 -0.005,-0.007c0,-0.003 0.002,-0.008 0.007,-0.015c0.005,-0.006 0.012,-0.014 0.021,-0.022c0.009,-0.008 0.02,-0.017 0.033,-0.025c0.013,-0.009 0.026,-0.018 0.041,-0.027c0.015,-0.009 0.031,-0.017 0.048,-0.025c0.006,-0.003 0.012,-0.002 0.018,0.002c0.006,0.004 0.011,0.009 0.015,0.015c0.004,0.006 0.005,0.011 0.004,0.014l-0.122,0.289c-0.003,0.005 -0.005,0.01 -0.006,0.015c-0.001,0.005 -0.002,0.009 -0.002,0.013c0,0.005 0.002,0.008 0.006,0.01c0.004,0.002 0.007,0.002 0.01,0.002c0.009,-0 0.02,-0.004 0.032,-0.013c0.012,-0.009 0.025,-0.02 0.039,-0.033c0.014,-0.013 0.027,-0.026 0.04,-0.039c0.001,-0.001 0.003,-0.002 0.004,-0.002c0.001,0 0.003,0.001 0.004,0.002c0.001,0.001 0.002,0.002 0.002,0.004c0,0.011 -0.006,0.024 -0.019,0.041c-0.013,0.016 -0.028,0.033 -0.048,0.049c-0.019,0.016 -0.039,0.03 -0.058,0.041c-0.02,0.011 -0.038,0.017 -0.053,0.017Zm0.202,-0.527c-0.01,0 -0.018,-0.004 -0.025,-0.012c-0.007,-0.008 -0.01,-0.017 -0.01,-0.027c0,-0.016 0.005,-0.03 0.016,-0.042c0.011,-0.012 0.024,-0.018 0.04,-0.018c0.011,0 0.019,0.005 0.025,0.013c0.006,0.009 0.009,0.019 0.009,0.029c0,0.015 -0.005,0.028 -0.016,0.04c-0.011,0.012 -0.024,0.017 -0.039,0.017Z" style="fill-rule:nonzero;"/>
</g>
<g transform="matrix(1200,0,0,1200,1909.689735,1547.064199)">
<path d="M0.045,0.014c-0.008,0 -0.016,-0.002 -0.024,-0.007c-0.008,-0.004 -0.014,-0.01 -0.019,-0.017c-0.005,-0.007 -0.008,-0.014 -0.008,-0.021c-0,-0.024 0.008,-0.052 0.024,-0.084c0.016,-0.032 0.038,-0.065 0.067,-0.1c0.029,-0.035 0.062,-0.069 0.099,-0.102c0.036,-0.031 0.065,-0.055 0.088,-0.071c0.023,-0.016 0.039,-0.024 0.05,-0.024c0.011,0 0.02,0.005 0.028,0.014c0.009,0.012 0.013,0.018 0.012,0.017c-0.001,-0.001 -0.001,-0.002 -0.001,-0.002c0.001,-0 0.003,-0.001 0.004,-0.002c0.001,-0.001 0.002,-0.003 0.003,-0.005c0.009,-0.016 0.015,-0.026 0.017,-0.029c0.002,-0.003 0.002,-0.004 0,-0.001c0.004,-0.007 0.008,-0.01 0.012,-0.01c0.006,0 0.012,0.001 0.018,0.003c0.006,0.002 0.011,0.005 0.014,0.008c0.004,0.003 0.006,0.007 0.006,0.01c0,0.003 -0.002,0.012 -0.007,0.025l-0.112,0.297c-0.009,0.023 -0.004,0.034 0.013,0.034c0.012,-0 0.026,-0.006 0.043,-0.018c0.017,-0.012 0.032,-0.026 0.044,-0.042c0.001,-0.001 0.003,-0.003 0.005,-0.004c0.002,-0.001 0.003,-0.002 0.005,-0.002c0.003,0 0.005,0.001 0.006,0.003c0.001,0.002 0.002,0.005 0.002,0.008c0,0.005 -0.005,0.014 -0.014,0.028c-0.009,0.014 -0.019,0.026 -0.029,0.035c-0.019,0.017 -0.037,0.031 -0.056,0.04c-0.019,0.009 -0.037,0.014 -0.052,0.014c-0.007,0 -0.013,-0.002 -0.02,-0.006c-0.007,-0.004 -0.012,-0.009 -0.017,-0.015c-0.004,-0.006 -0.006,-0.012 -0.006,-0.018c0,-0.007 0.002,-0.015 0.006,-0.023c-0.003,0.006 -0.003,0.006 -0.001,0c0.002,-0.006 0.006,-0.015 0.012,-0.028c0.006,-0.013 0.012,-0.026 0.019,-0.04c0.007,-0.014 0.012,-0.026 0.017,-0.037c0.003,-0.007 0.005,-0.013 0.005,-0.017c-0,-0.004 -0.003,-0.003 -0.007,0.002c-0.041,0.045 -0.075,0.081 -0.104,0.108c-0.029,0.027 -0.054,0.046 -0.076,0.057c-0.022,0.011 -0.043,0.017 -0.063,0.017Zm0.056,-0.063c0.015,-0 0.036,-0.012 0.066,-0.037c0.029,-0.024 0.062,-0.058 0.099,-0.101c0.025,-0.029 0.045,-0.056 0.06,-0.081c0.015,-0.025 0.022,-0.043 0.022,-0.055c0,-0.005 -0.004,-0.012 -0.013,-0.019c-0.004,-0.003 -0.008,-0.006 -0.013,-0.008c-0.005,-0.002 -0.009,-0.003 -0.012,-0.003c-0.012,0 -0.029,0.006 -0.049,0.018c-0.021,0.012 -0.04,0.026 -0.057,0.043c-0.022,0.021 -0.043,0.045 -0.063,0.072c-0.02,0.027 -0.036,0.052 -0.049,0.077c-0.012,0.025 -0.018,0.045 -0.018,0.06c0,0.01 0.003,0.018 0.008,0.025c0.005,0.006 0.012,0.009 0.021,0.01Z" style="fill-rule:nonzero;"/>
</g>
<g transform="matrix(1200,0,0,1200,2474.889735,1547.064199)">
<path d="M0.056,0.014c-0.009,0 -0.018,-0.005 -0.029,-0.014c-0.011,-0.009 -0.016,-0.019 -0.016,-0.03c0,-0.004 0.001,-0.008 0.002,-0.012l0.19,-0.541c0.003,-0.009 0.006,-0.018 0.007,-0.027c0.002,-0.009 0.003,-0.017 0.003,-0.026c0,-0.006 -0.003,-0.012 -0.009,-0.017c-0.006,-0.005 -0.014,-0.009 -0.024,-0.011c-0.007,-0.001 -0.012,-0.003 -0.016,-0.005c-0.004,-0.002 -0.006,-0.005 -0.006,-0.008c0,-0.002 0,-0.004 0.001,-0.005c0,-0.001 0.001,-0.003 0.002,-0.004c0.001,-0.001 0.002,-0.002 0.004,-0.002c0.013,-0.003 0.028,-0.006 0.046,-0.009c0.018,-0.003 0.035,-0.006 0.051,-0.008c0.016,-0.002 0.026,-0.003 0.031,-0.003c0.003,0 0.006,0.001 0.009,0.003c0.002,0.002 0.004,0.006 0.004,0.011c0,0.004 -0.001,0.008 -0.002,0.014c-0.001,0.005 -0.003,0.01 -0.004,0.014l-0.202,0.576c-0.002,0.005 -0.003,0.01 -0.004,0.015c-0.001,0.005 -0.001,0.009 -0.001,0.013c0,0.011 0.003,0.016 0.01,0.016c0.009,-0 0.021,-0.005 0.035,-0.015c0.014,-0.01 0.027,-0.023 0.04,-0.038c0.013,-0.015 0.024,-0.028 0.032,-0.039c0.004,-0.005 0.009,-0.01 0.014,-0.015c0.005,-0.005 0.009,-0.008 0.012,-0.008c0.003,0 0.004,0.001 0.005,0.004c0,0.002 0.001,0.006 0.001,0.01c0,0.013 -0.005,0.027 -0.014,0.042c-0.009,0.015 -0.021,0.029 -0.036,0.043c-0.015,0.014 -0.03,0.027 -0.047,0.038c-0.017,0.011 -0.033,0.02 -0.048,0.027c-0.015,0.007 -0.028,0.01 -0.039,0.01Z" style="fill-rule:nonzero;"/>
</g>
<g transform="matrix(1200,0,0,1200,2818.089735,1547.064199)">
<path d="M0.066,0.014c-0.011,0 -0.021,-0.004 -0.028,-0.011c-0.007,-0.007 -0.011,-0.015 -0.011,-0.023c0,-0.003 0,-0.005 0.001,-0.008c0,-0.003 0.001,-0.005 0.002,-0.008c0.027,-0.055 0.05,-0.107 0.069,-0.157c0.019,-0.049 0.035,-0.092 0.05,-0.129c0.003,-0.008 0.001,-0.012 -0.005,-0.012c-0.003,0 -0.01,0.002 -0.02,0.006c-0.01,0.004 -0.02,0.009 -0.03,0.015c-0.011,0.006 -0.02,0.012 -0.028,0.018c-0.003,0.003 -0.007,0.003 -0.01,0.002c-0.003,-0.001 -0.005,-0.004 -0.005,-0.007c0,-0.003 0.002,-0.008 0.007,-0.015c0.005,-0.006 0.012,-0.014 0.021,-0.022c0.009,-0.008 0.02,-0.017 0.033,-0.025c0.013,-0.009 0.026,-0.018 0.041,-0.027c0.015,-0.009 0.031,-0.017 0.048,-0.025c0.006,-0.003 0.012,-0.002 0.018,0.002c0.006,0.004 0.011,0.009 0.015,0.015c0.004,0.006 0.005,0.011 0.004,0.014l-0.122,0.289c-0.003,0.005 -0.005,0.01 -0.006,0.015c-0.001,0.005 -0.002,0.009 -0.002,0.013c0,0.005 0.002,0.008 0.006,0.01c0.004,0.002 0.007,0.002 0.01,0.002c0.009,-0 0.02,-0.004 0.032,-0.013c0.012,-0.009 0.025,-0.02 0.039,-0.033c0.014,-0.013 0.027,-0.026 0.04,-0.039c0.001,-0.001 0.003,-0.002 0.004,-0.002c0.001,0 0.003,0.001 0.004,0.002c0.001,0.001 0.002,0.002 0.002,0.004c0,0.011 -0.006,0.024 -0.019,0.041c-0.013,0.016 -0.028,0.033 -0.048,0.049c-0.019,0.016 -0.039,0.03 -0.058,0.041c-0.02,0.011 -0.038,0.017 -0.053,0.017Zm0.202,-0.527c-0.01,0 -0.018,-0.004 -0.025,-0.012c-0.007,-0.008 -0.01,-0.017 -0.01,-0.027c0,-0.016 0.005,-0.03 0.016,-0.042c0.011,-0.012 0.024,-0.018 0.04,-0.018c0.011,0 0.019,0.005 0.025,0.013c0.006,0.009 0.009,0.019 0.009,0.029c0,0.015 -0.005,0.028 -0.016,0.04c-0.011,0.012 -0.024,0.017 -0.039,0.017Z" style="fill-rule:nonzero;"/>
</g>
<g transform="matrix(1200,0,0,1200,3170.889735,1547.064199)">
<path d="M0.064,0.014c-0.005,0 -0.011,-0.002 -0.018,-0.007c-0.007,-0.004 -0.012,-0.009 -0.016,-0.015c-0.004,-0.006 -0.006,-0.011 -0.007,-0.015c0,-0.011 0.001,-0.021 0.005,-0.029c0.003,-0.008 0.006,-0.017 0.009,-0.027l0.095,-0.267c0.001,-0.005 0.001,-0.008 -0.002,-0.009c-0.002,-0.002 -0.005,-0.002 -0.009,-0.003l-0.04,-0.002c-0.009,-0.001 -0.014,-0.003 -0.015,-0.006c-0.002,-0.003 -0.003,-0.006 -0.003,-0.009c0,-0.001 0.002,-0.004 0.005,-0.008c0.003,-0.004 0.007,-0.007 0.012,-0.011c0.005,-0.004 0.011,-0.005 0.017,-0.006l0.036,0c0.007,0 0.012,-0.001 0.015,-0.004c0.003,-0.002 0.006,-0.007 0.009,-0.015l0.024,-0.049c0.003,-0.005 0.008,-0.011 0.015,-0.018c0.007,-0.007 0.015,-0.013 0.022,-0.019c0.008,-0.005 0.013,-0.008 0.017,-0.008c0.005,0 0.009,0.004 0.01,0.011c0.001,0.007 0.001,0.014 -0.002,0.021l-0.026,0.067c-0.001,0.005 -0.001,0.008 0.002,0.009c0.002,0.001 0.006,0.002 0.012,0.002c0.013,-0 0.027,0.001 0.041,0.003c0.014,0.002 0.025,0.004 0.034,0.005c0.011,0.002 0.017,0.004 0.02,0.007c0.002,0.002 0.004,0.005 0.004,0.009c0,0.001 -0.001,0.004 -0.004,0.007c-0.003,0.003 -0.008,0.005 -0.015,0.006c-0.015,0.001 -0.029,0.002 -0.042,0.003c-0.013,0.001 -0.027,0.002 -0.042,0.003c-0.011,0.001 -0.018,0.002 -0.022,0.005c-0.004,0.003 -0.007,0.006 -0.009,0.01l-0.089,0.246c-0.003,0.008 -0.004,0.015 -0.004,0.021c0,0.006 0.002,0.011 0.005,0.014c0.004,0.003 0.009,0.005 0.017,0.005c0.009,0 0.019,-0.003 0.03,-0.01c0.011,-0.007 0.021,-0.014 0.031,-0.023c0.01,-0.009 0.018,-0.016 0.025,-0.023c0.007,-0.007 0.014,-0.011 0.019,-0.01c0.005,0.001 0.008,0.003 0.008,0.007c0,0.005 -0.002,0.01 -0.005,0.015c-0.003,0.006 -0.008,0.011 -0.013,0.018c-0.011,0.011 -0.022,0.022 -0.034,0.032c-0.012,0.01 -0.024,0.019 -0.036,0.027c-0.012,0.008 -0.024,0.015 -0.035,0.021c-0.011,0.006 -0.021,0.01 -0.029,0.014c-0.009,0.003 -0.016,0.005 -0.021,0.005Z" style="fill-rule:nonzero;"/>
</g>
<g transform="matrix(1200,0,0,1200,3521.289735,1547.064199)">
<path d="M-0.054,0.29c-0.01,0 -0.02,-0.004 -0.03,-0.01c-0.01,-0.007 -0.015,-0.018 -0.015,-0.032c-0,-0.009 0.002,-0.018 0.006,-0.025c0.004,-0.007 0.009,-0.013 0.015,-0.018c0.006,-0.005 0.012,-0.007 0.018,-0.007c0.007,0 0.012,0.002 0.017,0.006c0.005,0.004 0.009,0.007 0.014,0.011c0.005,0.004 0.009,0.008 0.014,0.011c0.005,0.003 0.01,0.005 0.016,0.005c0.023,0 0.048,-0.015 0.073,-0.045c0.026,-0.03 0.05,-0.067 0.071,-0.112c0.015,-0.031 0.025,-0.066 0.03,-0.103c0.005,-0.038 0.008,-0.079 0.008,-0.124c0,-0.049 -0.004,-0.089 -0.01,-0.118c-0.007,-0.029 -0.015,-0.05 -0.024,-0.064c-0.009,-0.013 -0.017,-0.019 -0.023,-0.019c-0.007,0 -0.014,0.004 -0.022,0.011c-0.008,0.008 -0.015,0.017 -0.021,0.027c-0.006,0.01 -0.011,0.019 -0.013,0.027c-0.001,0.003 -0.003,0.009 -0.007,0.017c-0.004,0.008 -0.008,0.012 -0.012,0.012c-0.003,0 -0.005,-0.003 -0.007,-0.009c-0.002,-0.006 -0.002,-0.012 -0.002,-0.019c0,-0.015 0.003,-0.03 0.01,-0.045c0.006,-0.015 0.015,-0.028 0.025,-0.04c0.01,-0.012 0.021,-0.022 0.034,-0.029c0.012,-0.007 0.024,-0.011 0.035,-0.011c0.016,0 0.03,0.006 0.041,0.017c0.011,0.011 0.02,0.028 0.026,0.049c0.009,0.029 0.018,0.064 0.025,0.107c0.007,0.042 0.009,0.097 0.006,0.163c-0.001,0.012 0,0.018 0.004,0.017c0.003,-0.001 0.007,-0.005 0.012,-0.014c0.022,-0.042 0.042,-0.091 0.059,-0.146c0.018,-0.055 0.027,-0.116 0.027,-0.183c0,-0.003 0.003,-0.007 0.008,-0.012c0.005,-0.005 0.009,-0.007 0.011,-0.007c0.003,0 0.007,0.002 0.012,0.006c0.005,0.004 0.01,0.009 0.015,0.015c0.004,0.007 0.007,0.014 0.007,0.022c0,0.041 -0.01,0.09 -0.031,0.146c-0.021,0.056 -0.05,0.115 -0.087,0.178c-0.037,0.063 -0.081,0.125 -0.13,0.186c-0.023,0.029 -0.047,0.055 -0.071,0.079c-0.024,0.024 -0.047,0.044 -0.07,0.059c-0.022,0.015 -0.043,0.022 -0.061,0.022Z" style="fill-rule:nonzero;"/>
</g>
</g>
</g>
</svg>