<svg xmlns="http://www.w3.org/2000/svg" viewBox="46 27 143 47" width="300" height="150" preserveAspectRatio="xMidYMid meet">
<g transform="translate(51, 32)">
  <g transform="translate(1.002015, 27.019708)">
    <path d="M 8.46875 0 L 5.875 0 C 5.570312 -1.03125 5.265625 -2.066406 4.953125 -3.109375 C 4.648438 -4.148438 4.359375 -5.191406 4.078125 -6.234375 C 3.804688 -7.273438 3.546875 -8.320312 3.296875 -9.375 C 3.046875 -10.425781 2.816406 -11.484375 2.609375 -12.546875 C 2.398438 -13.609375 2.21875 -14.675781 2.0625 -15.75 C 1.914062 -16.820312 1.84375 -17.898438 1.84375 -18.984375 L 1.84375 -21.078125 L 4.078125 -21.078125 L 4.078125 -18.984375 C 4.078125 -18.015625 4.132812 -17.054688 4.25 -16.109375 C 4.363281 -15.160156 4.492188 -14.210938 4.640625 -13.265625 C 4.796875 -12.316406 4.96875 -11.375 5.15625 -10.4375 C 5.351562 -9.5 5.5625 -8.5625 5.78125 -7.625 C 6 -6.6875 6.222656 -5.753906 6.453125 -4.828125 C 6.679688 -3.898438 6.921875 -2.96875 7.171875 -2.03125 C 7.421875 -2.96875 7.660156 -3.898438 7.890625 -4.828125 C 8.117188 -5.753906 8.34375 -6.6875 8.5625 -7.625 C 8.78125 -8.5625 8.984375 -9.5 9.171875 -10.4375 C 9.367188 -11.375 9.539062 -12.316406 9.6875 -13.265625 C 9.84375 -14.210938 9.976562 -15.160156 10.09375 -16.109375 C 10.207031 -17.054688 10.265625 -18.015625 10.265625 -18.984375 L 10.265625 -21.078125 L 12.5 -21.078125 L 12.5 -18.984375 C 12.5 -17.898438 12.421875 -16.820312 12.265625 -15.75 C 12.117188 -14.675781 11.941406 -13.609375 11.734375 -12.546875 C 11.523438 -11.484375 11.296875 -10.425781 11.046875 -9.375 C 10.796875 -8.320312 10.53125 -7.273438 10.25 -6.234375 C 9.976562 -5.191406 9.6875 -4.148438 9.375 -3.109375 C 9.070312 -2.066406 8.769531 -1.03125 8.46875 0 Z"/>
  </g>
  <g transform="translate(21.541016, 27.019708)">
    <path d="M 1.140625 0 L 1.140625 -2.015625 L 2.46875 -2.015625 L 2.46875 -19.078125 L 1.140625 -19.078125 L 1.140625 -21.078125 L 6.03125 -21.078125 L 6.03125 -19.078125 L 4.703125 -19.078125 L 4.703125 -2.015625 L 6.03125 -2.015625 L 6.03125 0 Z"/>
  </g>
  <g transform="translate(34.908539, 27.019708)">
    <path d="M 1.84375 0 L 1.84375 -2.125 C 1.84375 -3.195312 1.914062 -4.265625 2.0625 -5.328125 C 2.21875 -6.398438 2.398438 -7.46875 2.609375 -8.53125 C 2.816406 -9.59375 3.046875 -10.648438 3.296875 -11.703125 C 3.546875 -12.753906 3.804688 -13.800781 4.078125 -14.84375 C 4.359375 -15.882812 4.648438 -16.925781 4.953125 -17.96875 C 5.265625 -19.007812 5.570312 -20.046875 5.875 -21.078125 L 8.46875 -21.078125 C 8.769531 -20.046875 9.070312 -19.007812 9.375 -17.96875 C 9.6875 -16.925781 9.976562 -15.882812 10.25 -14.84375 C 10.53125 -13.800781 10.796875 -12.753906 11.046875 -11.703125 C 11.296875 -10.648438 11.523438 -9.59375 11.734375 -8.53125 C 11.941406 -7.46875 12.117188 -6.398438 12.265625 -5.328125 C 12.421875 -4.265625 12.5 -3.195312 12.5 -2.125 L 12.5 0 L 10.265625 0 L 10.265625 -2.125 C 10.265625 -2.675781 10.242188 -3.226562 10.203125 -3.78125 C 10.171875 -4.34375 10.117188 -4.898438 10.046875 -5.453125 L 4.296875 -5.453125 C 4.222656 -4.898438 4.164062 -4.34375 4.125 -3.78125 C 4.09375 -3.226562 4.078125 -2.675781 4.078125 -2.125 L 4.078125 0 Z M 4.59375 -7.453125 L 9.75 -7.453125 C 9.445312 -9.410156 9.066406 -11.351562 8.609375 -13.28125 C 8.148438 -15.21875 7.671875 -17.140625 7.171875 -19.046875 C 6.671875 -17.140625 6.191406 -15.21875 5.734375 -13.28125 C 5.273438 -11.351562 4.894531 -9.410156 4.59375 -7.453125 Z"/>
  </g>
  <g transform="translate(55.44754, 27.019708)">
    <path d="M 2.75 0 L 2.75 -21.078125 L 4.984375 -21.078125 L 4.984375 -2.015625 L 12.6875 -2.015625 L 12.6875 0 Z"/>
  </g>
  <g transform="translate(75.98654, 27.019708)">
    <path d="M 1.140625 0 L 1.140625 -2.015625 L 2.46875 -2.015625 L 2.46875 -19.078125 L 1.140625 -19.078125 L 1.140625 -21.078125 L 6.03125 -21.078125 L 6.03125 -19.078125 L 4.703125 -19.078125 L 4.703125 -2.015625 L 6.03125 -2.015625 L 6.03125 0 Z"/>
  </g>
  <g transform="translate(89.354064, 27.019708)">
    <path d="M 6.046875 0 L 6.046875 -19.078125 L 1.65625 -19.078125 L 1.65625 -21.078125 L 12.6875 -21.078125 L 12.6875 -19.078125 L 8.296875 -19.078125 L 8.296875 0 Z"/>
  </g>
  <g transform="translate(109.893064, 27.019708)">
    <path d="M 6.046875 0 L 6.046875 -8.203125 L 3.640625 -12.875 C 3.085938 -13.945312 2.648438 -15.070312 2.328125 -16.25 C 2.003906 -17.425781 1.84375 -18.617188 1.84375 -19.828125 L 1.84375 -21.078125 L 4.078125 -21.078125 L 4.078125 -19.828125 C 4.078125 -18.773438 4.210938 -17.738281 4.484375 -16.71875 C 4.765625 -15.707031 5.144531 -14.734375 5.625 -13.796875 L 7.171875 -10.8125 L 8.71875 -13.796875 C 9.195312 -14.734375 9.570312 -15.707031 9.84375 -16.71875 C 10.125 -17.738281 10.265625 -18.773438 10.265625 -19.828125 L 10.265625 -21.078125 L 12.5 -21.078125 L 12.5 -19.828125 C 12.5 -18.617188 12.335938 -17.425781 12.015625 -16.25 C 11.691406 -15.070312 11.253906 -13.945312 10.703125 -12.875 L 8.296875 -8.203125 L 8.296875 0 Z"/>
  </g>
</g>
</svg>
